<svg width="24" height="24" viewBox="0 0 24 24" fill="none" xmlns="http://www.w3.org/2000/svg">
<path d="M10.4062 15.6379L12.1906 16.5191C12.2125 16.6785 12.2438 16.8379 12.2875 16.9941C12.3313 17.1504 12.3813 17.3066 12.4438 17.4535L11.3406 19.1098L12.8969 20.666L14.5531 19.5629C14.85 19.6848 15.1656 19.7691 15.4906 19.816L16.3719 21.5973L18.4969 21.0285L18.3656 19.0441C18.625 18.8441 18.8531 18.6129 19.05 18.3566L21.0344 18.4848L21.6031 16.3598L19.8188 15.4785C19.7969 15.3191 19.7688 15.1629 19.725 15.0035C19.6813 14.8441 19.6281 14.691 19.5688 14.5441L20.6719 12.8879L19.1156 11.3316L17.4594 12.4348C17.1625 12.3129 16.8469 12.2254 16.5219 12.1816L15.6406 10.4004L13.5156 10.9723L13.6438 12.9535C13.3844 13.1535 13.1563 13.3848 12.9594 13.641L10.975 13.5129L10.4062 15.6379ZM17.3781 16.0004C17.3781 16.3651 17.2333 16.7148 16.9754 16.9727C16.7175 17.2305 16.3678 17.3754 16.0031 17.3754C15.6385 17.3754 15.2887 17.2305 15.0309 16.9727C14.773 16.7148 14.6281 16.3651 14.6281 16.0004C14.6281 15.6357 14.773 15.286 15.0309 15.0281C15.2887 14.7703 15.6385 14.6254 16.0031 14.6254C16.3678 14.6254 16.7175 14.7703 16.9754 15.0281C17.2333 15.286 17.3781 15.6357 17.3781 16.0004Z" fill="#DFE0E1"/>
<path d="M10.4906 2.97109L10.3625 4.95234C10.6219 5.15234 10.85 5.38359 11.0469 5.63984L13.0312 5.51172L13.6 7.63672L11.8156 8.51797C11.7938 8.67734 11.7625 8.83672 11.7219 8.99297C11.6813 9.14922 11.625 9.30547 11.5656 9.45234L12.6687 11.1086L11.1156 12.6648L9.45937 11.5617C9.1625 11.6836 8.84687 11.7711 8.52187 11.8148L7.64062 13.5961L5.51562 13.0273L5.64375 11.043C5.38437 10.843 5.15625 10.6117 4.95937 10.3555L2.975 10.4836L2.40625 8.35859L4.19062 7.47734C4.2125 7.31797 4.24375 7.16172 4.2875 7.00234C4.33125 6.84297 4.38125 6.68984 4.44375 6.54297L3.3375 4.88984L4.89375 3.33359L6.54688 4.43672C6.84688 4.31484 7.15938 4.22734 7.48438 4.18359L8.36562 2.40234L10.4906 2.97109ZM8.00313 6.62422C7.63845 6.62422 7.28872 6.76908 7.03085 7.02695C6.77299 7.28481 6.62813 7.63455 6.62813 7.99922C6.62813 8.36389 6.77299 8.71363 7.03085 8.97149C7.28872 9.22935 7.63845 9.37422 8.00313 9.37422C8.3678 9.37422 8.71753 9.22935 8.9754 8.97149C9.23326 8.71363 9.37813 8.36389 9.37813 7.99922C9.37813 7.63455 9.23326 7.28481 8.9754 7.02695C8.71753 6.76908 8.3678 6.62422 8.00313 6.62422Z" fill="#0F6B6D"/>
</svg>
